{"title":"Dalziel &amp; Pascoe S10","uid":15574640,"size":3819371544,"categoryP":"video","categoryS":"tv_shows","magnet":"?xt=urn:btih:9a809ec1a0d76928c009cc3d17d296394674f794&amp;dn=Dalziel+%26amp%3B+Pascoe+S10&amp;tr=udp%3A%2F%2Ftracker.leechers-paradise.org%3A6969&amp;tr=udp%3A%2F%2Fzer0day.ch%3A1337&amp;tr=udp%3A%2F%2Fopen.demonii.com%3A1337&amp;tr=udp%3A%2F%2Ftracker.coppersurfer.tk%3A6969&amp;tr=udp%3A%2F%2Fexodus.desync.com%3A6969","seeders":1,"leechers":1,"uploader":"RedBaron58","files":5,"time":1471308955,"description":"Dalziel and Pascoe S10 DVDrip x264 mp4\r\n  \nhttp://www.imdb.com/title/tt0147760/\r\n\r\nThank you for your kind comments and feedback on my other torrents, your feedback is welcome.\r\n\r\nAbout the Series:\r\nThe series is primarily set in Yorkshire, and follows the work of two detectives that are \r\nthrown together as partners.\r\nEpisodes in this series are divided on on the DVDs into part 1 and part 2 but I have encoded\r\nthese together to give the original episode as broadcast, so don't be supprised at credits\r\nat 45 minutes in, as the whole episode is there and all episodes are approx 100 minutes. \r\n\r\nEpisode 1 &quot;Houdini's Ghost&quot;\r\nRetired entrepreneur Pal McLean is found dead in his study, with his face having been shot \r\nto a pulp by a shotgun.\r\n\r\nEpisode 2 &quot;Glory Days&quot;\r\nThe driver of Wetherton Wanderers F.C.'s tour bus, Ben Hawkins, mysteriously stops the bus \r\nin the middle of train tracks, causing the death of three people.\r\n\r\nEpisode 3 &quot;Wrong Time, Wrong Place&quot;\r\nDalziel and Pascoe are invited over to Amsterdam for a police conference from Dutch \r\nSuperintendent De Kuiper, on the morals of people trafficking and prostitution.\r\n\r\nEpisode 4 &quot;Guardian Angel&quot;\r\nHousewife Susan Goodman is poisoned to death whilst in the course of doing her weekly \r\nshopping. Initially suspected as a terrorist attack.\r\n\r\nEpisode 5 &quot;A Death in the Family&quot;\r\nSecurity guard Dave Compton is murdered in a high-stakes, high reward transit depot \r\nrobbery, in which the robbers get away with £600,000 pounds.\r\n\r\nTechnical: (All episodes are encoded to the same settings)\r\n\r\nGeneral\r\nComplete name                            : I:Dalziel &amp; Pascoe S10Dalziel Pascoe S10E01 Houdinis Ghost x264 RB58.mp4\r\nFormat                                   : MPEG-4\r\nFormat profile                           : Base Media / Version 2\r\nCodec ID                                 : mp42\r\nFile size                                : 722 MiB\r\nDuration                                 : 1h 40mn\r\nOverall bit rate mode                    : Variable\r\nOverall bit rate                         : 1 000 Kbps\r\nEncoded date                             : UTC 2016-08-11 12:26:19\r\nTagged date                              : UTC 2016-08-11 12:29:44\r\nWriting application                      : HandBrake 0.9.8 2012071700\r\n\r\nVideo\r\nID                                       : 1\r\nFormat                                   : AVC\r\nFormat/Info                              : Advanced Video Codec\r\nFormat profile                           :   \r\nFormat settings, CABAC                   : Yes\r\nFormat settings, ReFrames                : 4 frames\r\nCodec ID                                 : avc1\r\nCodec ID/Info                            : Advanced Video Coding\r\nDuration                                 : 1h 40mn\r\nBit rate                                 : 900 Kbps\r\nWidth                                    : 716 pixels\r\nHeight                                   : 574 pixels\r\nDisplay aspect ratio                     : 16:9\r\nFrame rate mode                          : Variable\r\nFrame rate                               : 25.000 fps\r\nMinimum frame rate                       : 15.663 fps\r\nMaximum frame rate                       : 25.000 fps\r\nColor space                              : YUV\r\nChroma subsampling                       : 4:2:0\r\nBit depth                                : 8 bits\r\nScan type                                : Progressive\r\nBits/(Pixel*Frame)                       : 0.088\r\nStream size                              : 650 MiB (90%)\r\nWriting library                          : x264 core 120\r\nEncoding settings                        : cabac=1 / ref=1 / deblock=1:0:0\r\nEncoded date                             : UTC 2016-08-11 12:26:19\r\nTagged date                              : UTC 2016-08-11 12:29:44\r\nColor range                              : Limited\r\nColor primaries                          : BT.601 NTSC\r\nTransfer characteristics                 : BT.709\r\nMatrix coefficients                      : BT.601\r\n\r\nAudio\r\nID                                       : 2\r\nFormat                                   : AAC\r\nFormat/Info                              : Advanced Audio Codec\r\nFormat profile                           : LC\r\nCodec ID                                 : 40\r\nDuration                                 : 1h 40mn\r\nBit rate mode                            : Variable\r\nBit rate                                 : 96.0 Kbps\r\nMaximum bit rate                         : 156 Kbps\r\nChannel(s)                               : 2 channels\r\nChannel positions                        : Front: L R\r\nSampling rate                            : 48.0 KHz\r\nCompression mode                         : Lossy\r\nStream size                              : 69.2 MiB (10%)\r\nTitle                                    : Stereo\r\nLanguage                                 : English","torrent":{"xt":"urn:btih:9a809ec1a0d76928c009cc3d17d296394674f794","amp;dn":"Dalziel+%26amp%3B+Pascoe+S10","amp;tr":["udp%3A%2F%2Ftracker.leechers-paradise.org%3A6969","udp%3A%2F%2Fzer0day.ch%3A1337","udp%3A%2F%2Fopen.demonii.com%3A1337","udp%3A%2F%2Ftracker.coppersurfer.tk%3A6969","udp%3A%2F%2Fexodus.desync.com%3A6969"],"infoHash":"9a809ec1a0d76928c009cc3d17d296394674f794","infoHashBuffer":{"type":"Buffer","data":[154,128,158,193,160,215,105,40,192,9,204,61,23,210,150,57,70,116,247,148]},"announce":[],"urlList":[]}}